<?xml version="1.0" encoding="UTF-8"?>
<svg xmlns="http://www.w3.org/2000/svg" width="524" height="194" viewBox="0 0 524 194">
  <rect width="524" height="194" fill="#fafafa"/>
  <path d="M 160 115 C 200 115, 200 115, 240 115" stroke="#888" stroke-width="2" fill="none"/>
  <path d="M 320 115 C 370 115, 370 75, 420 75" stroke="#888" stroke-width="2" fill="none"/>
  <path d="M 320 130 C 370 130, 370 115, 420 115" stroke="#888" stroke-width="2" fill="none"/>
  <path d="M 320 145 C 370 145, 370 155, 420 155" stroke="#888" stroke-width="2" fill="none"/>
  <rect x="80" y="100" width="80" height="30" rx="4" ry="4" fill="#a6bbcf" stroke="#888888" stroke-width="1"/>
  <text x="120" y="119" font-family="Arial,sans-serif" font-size="12" fill="#222222" text-anchor="middle">Trigger</text>
  <circle cx="80" cy="115" r="5" fill="#d9d9d9" stroke="#999" stroke-width="1"/>
  <circle cx="160" cy="115" r="5" fill="#d9d9d9" stroke="#999" stroke-width="1"/>
  <rect x="240" y="100" width="80" height="30" rx="4" ry="4" fill="#fdd0a2" stroke="#888888" stroke-width="1"/>
  <text x="280" y="119" font-family="Arial,sans-serif" font-size="12" fill="#222222" text-anchor="middle">Fan</text>
  <circle cx="240" cy="115" r="5" fill="#d9d9d9" stroke="#999" stroke-width="1"/>
  <circle cx="320" cy="115" r="5" fill="#d9d9d9" stroke="#999" stroke-width="1"/>
  <rect x="420" y="60" width="80" height="30" rx="4" ry="4" fill="#87a980" stroke="#888888" stroke-width="1"/>
  <text x="460" y="79" font-family="Arial,sans-serif" font-size="12" fill="#222222" text-anchor="middle">D1</text>
  <circle cx="420" cy="75" r="5" fill="#d9d9d9" stroke="#999" stroke-width="1"/>
  <rect x="420" y="100" width="80" height="30" rx="4" ry="4" fill="#87a980" stroke="#888888" stroke-width="1"/>
  <text x="460" y="119" font-family="Arial,sans-serif" font-size="12" fill="#222222" text-anchor="middle">D2</text>
  <circle cx="420" cy="115" r="5" fill="#d9d9d9" stroke="#999" stroke-width="1"/>
  <rect x="420" y="140" width="80" height="30" rx="4" ry="4" fill="#87a980" stroke="#888888" stroke-width="1"/>
  <text x="460" y="159" font-family="Arial,sans-serif" font-size="12" fill="#222222" text-anchor="middle">D3</text>
  <circle cx="420" cy="155" r="5" fill="#d9d9d9" stroke="#999" stroke-width="1"/>
</svg>
